<?xml version="1.0" encoding="UTF-8"?>
<svg id="Layer_2" data-name="Layer 2" xmlns="http://www.w3.org/2000/svg" viewBox="0 0 238.62 54.73">
  <defs>
    <style>
      .cls-1 {
        fill: #fff;
      }
    </style>
  </defs>
  <g id="Layer_1-2" data-name="Layer 1">
    <g id="r2ware">
      <g>
        <path class="cls-1" d="M0,7.14h10.08v7.63c1.06-2.64,2.54-4.68,4.46-6.12,1.92-1.44,4.03-2.16,6.34-2.16,2.95,0,7.26,1.57,7.64,1.62l-2.12,9.57c-1.2-.19-3.21-1.61-7.47-1.18-5.87.59-8.86,2.95-8.86,8.86v20.66H0V7.14Z"/>
        <path class="cls-1" d="M128.06,46.38h-10.44l-5.83-25.43-6.19,25.43h-10.37l-6.98-39.53h10.44l2.22,23.86,5.9-23.22h10.08l5.83,23.22,3.09-23.86h10.44l-8.2,39.53Z"/>
        <path class="cls-1" d="M148.32,48.03c-3.55,0-6.41-1.07-8.57-3.2-2.16-2.13-3.24-4.96-3.24-8.46,0-6.86,3.82-10.94,11.45-12.24l4.03-.72c.1,0,.58-.06,1.44-.18.86-.12,1.42-.22,1.66-.29.24-.07.71-.18,1.4-.32.7-.14,1.19-.31,1.48-.5.29-.19.64-.44,1.04-.76.41-.31.68-.67.83-1.08.14-.41.22-.88.22-1.4,0-2.59-1.94-3.89-5.83-3.89-2.5,0-4.25.38-5.26,1.15-1.01.77-1.63,2.16-1.87,4.18h-9.72c.62-8.98,6.17-13.46,16.63-13.46s15.91,3.98,15.91,11.95v21.6c0,1.78.77,3.36,2.3,4.75v1.22h-10.94c-.77-.96-1.15-2.26-1.15-3.89-3.55,3.7-7.49,5.54-11.81,5.54ZM160.06,30.75v-2.74c-.91.43-2.33.84-4.25,1.22l-3.46.65c-2.11.43-3.6,1.06-4.46,1.87-.86.82-1.3,1.97-1.3,3.46s.49,2.58,1.48,3.42c.98.84,2.32,1.26,4,1.26,2.54,0,4.51-.79,5.9-2.38,1.39-1.58,2.09-3.84,2.09-6.77Z"/>
        <path class="cls-1" d="M175.35,7.5h10.08v7.63c1.06-2.64,2.54-4.68,4.46-6.12,1.92-1.44,4.03-2.16,6.34-2.16,2.95,0,7.26,1.57,7.64,1.62l-2.12,9.57c-1.2-.19-3.21-1.61-7.47-1.18-5.87.59-8.86,2.95-8.86,8.86v20.66h-10.08V7.5Z"/>
        <path class="cls-1" d="M220.4,6.85c1.68,0,3.31.19,4.9.58,1.58.38,3.2,1.08,4.86,2.09,1.66,1.01,3.1,2.29,4.32,3.85,1.22,1.56,2.22,3.62,2.99,6.19.77,2.57,1.15,5.51,1.15,8.82,0,.58-.02,1.15-.07,1.73h-26.06c.05,1.49.18,2.77.4,3.85s.6,2.14,1.15,3.17c.55,1.03,1.37,1.83,2.45,2.38,1.08.55,2.44.83,4.07.83,3.84,0,6.41-1.63,7.7-4.9h9.94c-1.1,3.84-3.29,6.9-6.55,9.18-3.26,2.28-7.08,3.42-11.45,3.42-5.52,0-9.86-1.79-13.03-5.36-3.17-3.58-4.75-8.48-4.75-14.72s1.61-11.68,4.82-15.44c3.21-3.77,7.61-5.65,13.18-5.65ZM228.11,23.41c-.24-2.83-1.02-5.02-2.34-6.55-1.32-1.54-3.16-2.3-5.51-2.3-4.42,0-6.96,2.95-7.63,8.86h15.48Z"/>
        <path class="cls-1" d="M78.38,0h-40.73c-3.87,0-7,3.13-7,7v40.73c0,3.87,3.13,7,7,7h40.73c3.87,0,7-3.13,7-7V7c0-3.87-3.13-7-7-7ZM72.17,45.32h-30.08v-3.61c0-8.49,4.88-11.76,11.7-14.77l3.21-1.4c5.08-2.21,6.68-3.74,6.68-6.22,0-3.01-2.14-4.81-6.22-4.81s-6.42,1.8-6.42,5.21l-8.02-1.54c0-7.09,6.22-10.83,14.71-10.83,8.96,0,14.37,4.34,14.37,11.5,0,5.35-2.81,9.02-9.63,11.76l-2.54,1c-4.88,2.01-7.62,3.68-8.29,6.75h20.52v6.95Z"/>
      </g>
    </g>
  </g>
</svg>