<?xml version="1.0" encoding="UTF-8"?>
<svg id="Layer_2" data-name="Layer 2" xmlns="http://www.w3.org/2000/svg" viewBox="0 0 257.21 34.8">
  <defs>
    <style>
      .cls-1 {
        fill: #fff;
      }
    </style>
  </defs>
  <g id="Layer_1-2" data-name="Layer 1">
    <g id="knockout">
      <g id="knockout-text">
        <path id="_" data-name="@" class="cls-1" d="M6.83,23.34c0-.57.12-1.29.37-2.14.25-.86.63-1.79,1.15-2.81.52-1.02,1.32-1.88,2.38-2.59,1.07-.71,2.29-1.06,3.67-1.06,1.56,0,2.68.71,3.37,2.13l.47-1.83h2.66l-2.31,8.28c-.16.59-.24,1-.24,1.24,0,.43.13.78.38,1.05s.61.4,1.07.4c1.04,0,2.1-.69,3.16-2.09,1.07-1.39,1.6-2.99,1.6-4.81,0-2.33-.97-4.36-2.9-6.09-2.05-1.81-4.51-2.72-7.36-2.72-2.21,0-4.2.56-5.97,1.67s-3.13,2.57-4.07,4.38c-.94,1.8-1.41,3.75-1.41,5.84,0,2.88,1.05,5.21,3.15,6.98,2.1,1.77,4.62,2.66,7.56,2.66,2.29,0,4.33-.4,6.12-1.21l.83,2.16c-1.99.91-4.33,1.36-7.01,1.36-4.06,0-7.33-1.14-9.8-3.42-2.48-2.28-3.71-5.1-3.71-8.47,0-1.71.38-3.47,1.14-5.27.76-1.79,1.79-3.36,3.09-4.7,2.74-2.84,6.15-4.26,10.23-4.26,3.57,0,6.59,1.09,9.05,3.27,2.46,2.18,3.7,4.93,3.7,8.27,0,1.32-.24,2.55-.71,3.7-.47,1.14-1.08,2.08-1.82,2.81-.74.73-1.54,1.3-2.4,1.72-.86.41-1.68.62-2.47.62-.97,0-1.77-.21-2.41-.64-.64-.42-1.07-.95-1.29-1.58-1.22,1.48-2.7,2.22-4.44,2.22-1.34,0-2.48-.49-3.43-1.48-.95-.99-1.42-2.18-1.42-3.58ZM12.33,26.01c1.18,0,2.22-.69,3.12-2.09.9-1.39,1.35-2.75,1.35-4.07,0-.93-.22-1.66-.66-2.2-.44-.54-1.05-.81-1.82-.81-1.16,0-2.22.63-3.18,1.88-.96,1.25-1.43,2.63-1.43,4.13,0,.89.26,1.64.77,2.25.51.61,1.13.92,1.86.92Z"/>
        <path id="r" class="cls-1" d="M28.7,8.63h6.55v4.96c.69-1.72,1.65-3.04,2.9-3.98,1.25-.94,2.62-1.4,4.12-1.4,1.92,0,4.72,1.02,4.97,1.05l-1.38,6.22c-.78-.12-2.09-1.04-4.85-.77-3.82.38-5.76,1.92-5.76,5.76v13.44h-6.55V8.63Z"/>
        <path id="e" class="cls-1" d="M58.46,8.38c1.08,0,2.13.12,3.14.37s2.06.69,3.12,1.34,1.99,1.47,2.77,2.47c.79,1,1.42,2.33,1.92,3.97.49,1.65.74,3.53.74,5.66,0,.37-.02.74-.05,1.11h-16.72c.03.95.12,1.78.25,2.47.14.69.38,1.37.74,2.03.35.66.88,1.17,1.57,1.52.69.35,1.56.53,2.61.53,2.46,0,4.11-1.05,4.94-3.14h6.38c-.71,2.46-2.11,4.43-4.2,5.89-2.1,1.46-4.54,2.19-7.35,2.19-3.54,0-6.33-1.15-8.36-3.44s-3.05-5.44-3.05-9.45,1.03-7.49,3.1-9.91c2.06-2.42,4.88-3.63,8.45-3.63ZM63.41,19c-.15-1.82-.65-3.22-1.5-4.2-.85-.98-2.03-1.48-3.53-1.48-2.83,0-4.47,1.89-4.9,5.68h9.93Z"/>
        <path id="i" class="cls-1" d="M78.77,0v5.77h-6.47V0h6.47ZM78.77,8.73v24.95h-6.47V8.73h6.47Z"/>
        <path id="d" class="cls-1" d="M91.49,34.8c-3.08,0-5.6-1.26-7.55-3.79-1.96-2.53-2.93-5.65-2.93-9.38s1-6.91,3-9.45c2-2.54,4.5-3.81,7.48-3.81s5.31,1.22,6.88,3.65V.06h6.47v33.68h-6.47v-2.54c-1.6,2.4-3.9,3.6-6.88,3.6ZM92.92,13.78c-1.6,0-2.91.73-3.93,2.19s-1.52,3.35-1.52,5.66.51,4.14,1.52,5.59c1.02,1.45,2.33,2.17,3.93,2.17s2.91-.71,3.93-2.13c1.02-1.42,1.52-3.26,1.52-5.54s-.5-4.29-1.5-5.75c-1-1.46-2.32-2.19-3.95-2.19Z"/>
        <path id="r-2" data-name="r" class="cls-1" d="M107.5,8.63h6.55v4.96c.69-1.72,1.65-3.04,2.9-3.98,1.25-.94,2.62-1.4,4.12-1.4,1.92,0,4.72,1.02,4.97,1.05l-1.38,6.22c-.78-.12-2.09-1.04-4.85-.77-3.82.38-5.76,1.92-5.76,5.76v13.44h-6.55V8.63Z"/>
        <path id="a" class="cls-1" d="M133.29,34.8c-2.28,0-4.11-.69-5.5-2.06-1.39-1.37-2.08-3.18-2.08-5.43,0-4.4,2.45-7.02,7.35-7.85l2.59-.46c.06,0,.37-.04.92-.12.55-.08.91-.14,1.06-.18s.45-.12.9-.21c.45-.09.76-.2.95-.32s.41-.28.67-.48c.26-.2.44-.43.53-.69.09-.26.14-.56.14-.9,0-1.66-1.25-2.5-3.74-2.5-1.6,0-2.72.25-3.37.74-.65.49-1.05,1.39-1.2,2.68h-6.24c.4-5.76,3.96-8.64,10.67-8.64s10.21,2.56,10.21,7.67v13.86c0,1.14.49,2.16,1.48,3.05v.79h-7.02c-.49-.62-.74-1.45-.74-2.5-2.28,2.37-4.8,3.56-7.58,3.56ZM140.82,23.72v-1.76c-.59.28-1.49.54-2.73.78l-2.22.42c-1.36.28-2.31.68-2.86,1.2-.55.52-.83,1.26-.83,2.22s.32,1.66.95,2.19c.63.54,1.49.81,2.56.81,1.63,0,2.89-.51,3.79-1.52.89-1.02,1.34-2.46,1.34-4.34Z"/>
        <path id="n" class="cls-1" d="M150.48,8.79h6.47v3.6c1.79-2.68,4.28-4.02,7.48-4.02,2.65,0,4.7.75,6.17,2.26,1.46,1.51,2.19,3.63,2.19,6.37v16.72h-6.47v-15.38c0-2.99-1.39-4.48-4.16-4.48-1.57,0-2.83.45-3.79,1.34-.95.89-1.43,2.08-1.43,3.56v14.97h-6.47V8.79Z"/>
        <path id="s" class="cls-1" d="M180.39,26.49c.2,1.05.61,1.85,1.23,2.4.62.56,1.8.83,3.53.83,1.42,0,2.52-.22,3.31-.65.79-.43,1.19-1.03,1.19-1.8,0-.49-.15-.89-.46-1.2-.3-.31-.83-.59-1.58-.83l-7.24-2.4s-.2-.05-.52-.16c-.32-.11-.54-.19-.67-.25-.13-.06-.37-.16-.71-.3-.35-.14-.61-.28-.8-.44-.19-.15-.43-.35-.72-.58-.29-.23-.51-.48-.67-.76-.16-.28-.32-.59-.5-.95s-.3-.76-.39-1.22c-.09-.46-.13-.95-.13-1.48,0-2.56.86-4.58,2.58-6.07,1.72-1.49,4.07-2.24,7.04-2.24,3.15,0,5.62.75,7.41,2.24,1.79,1.49,2.71,3.56,2.77,6.21h-5.85c-.03-2.25-1.49-3.37-4.38-3.37-1.07,0-1.92.21-2.56.62-.64.42-.95.98-.95,1.69,0,.49.14.87.43,1.13.29.26.85.53,1.69.81l7.67,2.36c3.06.95,4.59,3.05,4.59,6.28,0,.95-.16,1.89-.48,2.79-.32.91-.83,1.81-1.54,2.7-.71.89-1.77,1.61-3.18,2.15-1.42.54-3.09.81-5.03.81-7.19,0-10.88-2.77-11.05-8.32h5.94Z"/>
        <path id="o" class="cls-1" d="M209.1,8.38c3.91,0,6.95,1.18,9.12,3.53,2.17,2.36,3.26,5.64,3.26,9.86s-1.11,7.18-3.33,9.52c-2.22,2.34-5.22,3.51-9.01,3.51s-6.87-1.18-9.05-3.53-3.28-5.58-3.28-9.68,1.09-7.32,3.28-9.68,5.19-3.53,9.01-3.53ZM209.15,13.6c-1.76,0-3.17.74-4.25,2.22-1.08,1.48-1.62,3.4-1.62,5.77s.54,4.3,1.62,5.77c1.08,1.48,2.49,2.22,4.25,2.22s3.13-.73,4.23-2.19c1.09-1.46,1.64-3.36,1.64-5.71,0-2.46-.53-4.43-1.59-5.89-1.06-1.46-2.49-2.19-4.27-2.19Z"/>
        <path id="m" class="cls-1" d="M223.46,8.79h6.14v3.1c1.03-1.26,2.04-2.16,3.03-2.7.99-.54,2.16-.81,3.51-.81,3.12,0,5.29,1.23,6.49,3.7,1.77-2.46,4.09-3.7,6.98-3.7,2.39,0,4.25.68,5.59,2.03,1.34,1.35,2.01,3.25,2.01,5.68v17.65h-6.18v-16.63c0-.98-.3-1.77-.91-2.36-.6-.59-1.42-.88-2.45-.88-1.33,0-2.36.43-3.11,1.29-.75.86-1.13,2.06-1.13,3.6v14.97h-6.18v-16.63c0-.98-.3-1.77-.91-2.36-.6-.59-1.42-.88-2.45-.88-1.32,0-2.36.43-3.11,1.29-.75.86-1.13,2.06-1.13,3.6v14.97h-6.18V8.79Z"/>
      </g>
    </g>
  </g>
</svg>