<?xml version="1.0" encoding="UTF-8"?>
<svg id="Layer_2" data-name="Layer 2" xmlns="http://www.w3.org/2000/svg" viewBox="0 0 111.04 111.04">
  <defs>
    <style>
      .cls-1 {
        fill: #3e2f90;
      }

      .cls-2 {
        fill: #fff;
      }
    </style>
  </defs>
  <g id="Layer_1-2" data-name="Layer 1">
    <rect class="cls-1" width="111.04" height="111.04"/>
    <path class="cls-2" d="M99.49,48.75c0,6.28-1.29,12-3.86,17.17-2.58,5.17-6.23,9.2-10.96,12.1h.1c-2.19,1.45-4.44,2.54-6.74,3.26-2.3.72-4.48,1.09-6.54,1.09-3.16,0-5.67-.51-7.56-1.52s-3.08-2.71-3.6-5.09c-2.06,2.51-4.18,4.24-6.35,5.19-2.17.95-4.61,1.42-7.32,1.42-4.8,0-8.64-1.63-11.52-4.88-2.88-3.25-4.32-7.48-4.32-12.7,0-6.47,1.21-12.24,3.62-17.31s5.63-9.02,9.66-11.85c4.02-2.83,8.34-4.25,12.94-4.25,2.19,0,4.14.46,5.84,1.38,1.71.92,2.9,2.33,3.57,4.23l1.26-4.06h12.89l-8.74,32.06c-.52,1.9-.77,3.38-.77,4.44,0,1.19.25,1.96.75,2.32.5.35,1.13.53,1.91.53,1.06,0,2.11-.21,3.14-.63,1.03-.42,2.16-1.13,3.38-2.12,2.64-2.03,4.71-4.88,6.21-8.55s2.25-7.74,2.25-12.22c0-8.5-2.74-15.14-8.21-19.92-5.47-4.78-13.02-7.17-22.65-7.17-6.86,0-12.99,1.65-18.4,4.95-5.41,3.3-9.63,7.88-12.68,13.74-3.04,5.86-4.56,12.49-4.56,19.9,0,6.44,1.34,12.1,4.01,16.97,2.67,4.88,6.58,8.65,11.73,11.32,5.15,2.67,11.32,4.01,18.49,4.01,5.21,0,10.14-.76,14.78-2.27s9.21-3.98,13.71-7.39l5.41,7c-4.09,3.9-9.2,6.91-15.33,9.05-6.13,2.14-12.48,3.21-19.05,3.21-9.69,0-17.88-1.83-24.58-5.48-6.7-3.65-11.69-8.65-14.99-14.99-3.3-6.34-4.95-13.49-4.95-21.44,0-8.98,1.88-17.15,5.65-24.51,3.77-7.36,9.19-13.17,16.27-17.46,7.08-4.28,15.34-6.42,24.77-6.42,8.5,0,15.86,1.59,22.09,4.76,6.23,3.17,10.99,7.56,14.29,13.16,3.3,5.6,4.95,11.93,4.95,18.98ZM49.65,73.28c1.58,0,3.03-.53,4.35-1.59,1.32-1.06,2.43-2.45,3.33-4.15,1.87-3.03,3.28-6.44,4.23-10.24.95-3.8,1.42-6.84,1.42-9.13,0-2.45-.41-4.27-1.23-5.46-.82-1.19-2.23-1.79-4.23-1.79-2.22,0-4.37,1.1-6.45,3.31-2.08,2.21-3.76,5.22-5.05,9.05-1.29,3.83-1.93,8.02-1.93,12.56,0,4.96,1.85,7.44,5.55,7.44Z"/>
  </g>
</svg>